<mxfile host="65bd71144e">
    <diagram id="CfEwLxOQWi3Qi-9HVH3V" name="Page-1">
        <mxGraphModel dx="1216" dy="505" grid="0" gridSize="10" guides="1" tooltips="1" connect="1" arrows="1" fold="1" page="1" pageScale="1" pageWidth="827" pageHeight="1169" math="0" shadow="0">
            <root>
                <mxCell id="0"/>
                <mxCell id="1" parent="0"/>
                <mxCell id="30" value="café" style="swimlane;" vertex="1" parent="1">
                    <mxGeometry x="35" y="90" width="200" height="212" as="geometry"/>
                </mxCell>
                <mxCell id="31" value="nom" style="text;html=1;align=center;verticalAlign=middle;resizable=0;points=[];autosize=1;strokeColor=none;fillColor=none;" vertex="1" parent="30">
                    <mxGeometry y="28" width="50" height="30" as="geometry"/>
                </mxCell>
                <mxCell id="60" value="description" style="text;html=1;align=center;verticalAlign=middle;resizable=0;points=[];autosize=1;strokeColor=none;fillColor=none;" vertex="1" parent="30">
                    <mxGeometry y="58" width="76" height="26" as="geometry"/>
                </mxCell>
                <mxCell id="59" value="reference" style="text;html=1;align=center;verticalAlign=middle;resizable=0;points=[];autosize=1;strokeColor=none;fillColor=none;" vertex="1" parent="30">
                    <mxGeometry x="1" y="89" width="69" height="26" as="geometry"/>
                </mxCell>
                <mxCell id="61" value="origine" style="text;html=1;align=center;verticalAlign=middle;whiteSpace=wrap;rounded=0;" vertex="1" parent="30">
                    <mxGeometry y="119" width="51" height="30" as="geometry"/>
                </mxCell>
                <mxCell id="62" value="price_kg" style="text;html=1;align=center;verticalAlign=middle;whiteSpace=wrap;rounded=0;" vertex="1" parent="30">
                    <mxGeometry x="1" y="147" width="60" height="30" as="geometry"/>
                </mxCell>
                <mxCell id="63" value="disponible" style="text;html=1;align=center;verticalAlign=middle;whiteSpace=wrap;rounded=0;" vertex="1" parent="30">
                    <mxGeometry y="177" width="69" height="30" as="geometry"/>
                </mxCell>
                <mxCell id="64" value="caracteristic" style="swimlane;whiteSpace=wrap;html=1;" vertex="1" parent="1">
                    <mxGeometry x="321" y="140" width="200" height="65" as="geometry"/>
                </mxCell>
                <mxCell id="65" value="type" style="text;html=1;align=center;verticalAlign=middle;whiteSpace=wrap;rounded=0;" vertex="1" parent="64">
                    <mxGeometry x="4" y="28" width="60" height="30" as="geometry"/>
                </mxCell>
                <mxCell id="69" value="" style="endArrow=classic;startArrow=classic;html=1;exitX=1;exitY=0;exitDx=0;exitDy=0;entryX=0;entryY=0;entryDx=0;entryDy=0;" edge="1" parent="1" source="30" target="64">
                    <mxGeometry width="50" height="50" relative="1" as="geometry">
                        <mxPoint x="332" y="262" as="sourcePoint"/>
                        <mxPoint x="382" y="212" as="targetPoint"/>
                    </mxGeometry>
                </mxCell>
                <mxCell id="70" value="&lt;b&gt;1N&lt;/b&gt;" style="text;html=1;align=center;verticalAlign=middle;whiteSpace=wrap;rounded=0;" vertex="1" parent="1">
                    <mxGeometry x="318" y="122" width="25" height="18" as="geometry"/>
                </mxCell>
                <mxCell id="71" value="&lt;b&gt;1N&lt;/b&gt;" style="text;html=1;align=center;verticalAlign=middle;whiteSpace=wrap;rounded=0;" vertex="1" parent="1">
                    <mxGeometry x="210" y="72" width="25" height="18" as="geometry"/>
                </mxCell>
                <mxCell id="72" value="&lt;h1 style=&quot;margin-top: 0px;&quot;&gt;Choix MCD&lt;/h1&gt;&lt;p&gt;&amp;nbsp; On fait le choix de faire une entité pour les café et une autre pour les caractéristiques avec une association &lt;i&gt;&quot;many to many&quot;&lt;/i&gt;. Cela permettra d&#39;optimiser plus facilement à l&#39;avenir si tel est le besoin du client.&amp;nbsp;&lt;/p&gt;&lt;p&gt;Comme un café peut avoir plusieurs caractéristiques cela évite des répétitions et facilite le traitement des données. On aura donc une association unique à générer &quot;café_caracteristique&quot;. Et si jamais le client compte ajouter de nouvelles caractéristique, telle que &quot; l&#39;intensité, les notes, agrémentations etc...&quot; on aura juste à les ajouter à l&#39;entité.&lt;/p&gt;" style="text;html=1;whiteSpace=wrap;overflow=hidden;rounded=0;" vertex="1" parent="1">
                    <mxGeometry x="307" y="230" width="485" height="180" as="geometry"/>
                </mxCell>
            </root>
        </mxGraphModel>
    </diagram>
</mxfile>